<svg xmlns="http://www.w3.org/2000/svg" viewBox="0 0 184.604 29.044" style="enable-background:new 0 0 184.6039886 29.0439987" xml:space="preserve"><path d="M5.511 23.5h4.224l5.511-16.7h-4.257L7.656 18.352H7.59L4.257 6.8H0l5.511 16.7zm11.748 0h4.026V6.8h-4.026v16.7zm0-19.4h4.026V0h-4.026v4.1zm21.945 7.788c0-4.752-3.6-5.478-7.194-5.478-3.663 0-7.128 1.518-7.128 5.445l4.026.165c0-1.815.759-2.508 3.1-2.508 1.749 0 3.168.462 3.168 2.112v.495a41.559 41.559 0 0 1-4.356.99l-1.683.33c-2.475.5-5.082 1.947-5.082 5.214 0 3.234 2.508 5.247 5.676 5.247a8.43 8.43 0 0 0 5.445-1.914c.003.532.141 1.054.4 1.518h4.257a4.83 4.83 0 0 1-.627-2.805l-.002-8.811zm-4.026 5.643c0 2.145-2.409 3.069-4.29 3.069-1.452 0-2.607-.825-2.607-2.079 0-1.584 1.254-2.013 2.772-2.31l2.211-.462a7.258 7.258 0 0 0 1.914-.594v2.376zm7.789 5.969h4.026v-8.811c0-3.069 1.617-4.389 3.564-4.389 2.079 0 2.772 1.485 2.772 3v10.2h4.026V12.082c0-3.663-1.782-5.676-5.742-5.676a5.814 5.814 0 0 0-4.554 2.046h-.066V6.8h-4.026v16.7zm32.9-12.342a7.055 7.055 0 0 0-7.062-4.752c-5.412 0-8.547 3.762-8.547 8.745s3.135 8.745 8.25 8.745c4.521 0 6.435-2.673 7.557-5.115l-3.432-1.815c-.627 1.518-1.65 3.234-4.059 3.234-2.805 0-4.092-2.442-4.092-5.049s1.452-5.051 4.323-5.051a3.712 3.712 0 0 1 3.531 2.673l3.531-1.615zm16.533.726c0-4.752-3.6-5.478-7.194-5.478-3.663 0-7.128 1.518-7.128 5.445l4.026.165c0-1.815.759-2.508 3.1-2.508 1.749 0 3.168.462 3.168 2.112v.495a41.56 41.56 0 0 1-4.356.99l-1.683.33c-2.475.5-5.082 1.947-5.082 5.214 0 3.234 2.508 5.247 5.676 5.247a8.43 8.43 0 0 0 5.445-1.914c.002.531.138 1.053.395 1.518h4.26a4.83 4.83 0 0 1-.627-2.805v-8.811zm-4.026 5.643c0 2.145-2.409 3.069-4.29 3.069-1.452 0-2.607-.825-2.607-2.079 0-1.584 1.254-2.013 2.772-2.31l2.211-.462a7.258 7.258 0 0 0 1.914-.594v2.376zm16.962 5.973h4.026v-8.085c0-3.63 2.475-4.917 5.214-4.917V6.406c-2.343 0-4.191.792-5.148 2.706h-.066V6.8h-4.026v16.7zm27.126-7.392c0-5.973-2.442-9.7-8.019-9.7-5.412 0-8.547 3.762-8.547 8.745s3.135 8.745 8.547 8.745c4.554 0 6.963-2.178 8.217-4.092l-3.4-1.98a5.41 5.41 0 0 1-4.818 2.376 4.243 4.243 0 0 1-4.323-4.092l12.343-.002zm-12.342-3.1a4.3 4.3 0 0 1 4.323-3.3 3.78 3.78 0 0 1 3.795 3.3h-8.118zM135.3 23.5h4.026V6.8H135.3v16.7zm0-19.4h4.026V0H135.3v4.1zm7.986 19.4h4.026v-8.811c0-3.069 1.617-4.389 3.564-4.389 2.079 0 2.772 1.485 2.772 3v10.2h4.026V12.082c0-3.663-1.782-5.676-5.742-5.676a5.814 5.814 0 0 0-4.554 2.046h-.066V6.8h-4.026v16.7zm18.348 0h4.026V6.8h-4.026v16.7zm0-19.4h4.026V0h-4.026v4.1zm22.968 2.7h-4.026v1.619h-.066a5.489 5.489 0 0 0-4.686-2.013c-4.158 0-7.26 3.1-7.26 8.118s3.1 8.118 7.26 8.118a6.649 6.649 0 0 0 4.752-1.848v1.782c0 2.046-1.188 3.366-3.795 3.366-2.013 0-3.135-.924-3.432-2.079h-4.224c0 2.079 1.518 5.181 6.8 5.181 5.082 0 8.679-1.155 8.679-5.907L184.602 6.8zm-3.894 7.722c-.033 1.782-.924 4.422-3.96 4.422s-3.927-2.64-3.96-4.422c.033-1.782.924-4.422 3.96-4.422s3.927 2.642 3.96 4.424v-.002z" style="fill:#010202"/></svg>